HIERARCHY
ROOT Hips
{
 OFFSET 0.000000 0.000000 0.000000
 CHANNELS 6 Xposition Yposition Zposition Yrotation Xrotation Zrotation
 JOINT Chest
 {
  OFFSET 0.000000 10.383400 0.001500
  CHANNELS 3 Yrotation Xrotation Zrotation
  JOINT Chest2
  {
   OFFSET 0.000000 10.418200 -0.003100
   CHANNELS 3 Yrotation Xrotation Zrotation
   JOINT Chest3
   {
    OFFSET 0.000000 10.375100 0.000000
    CHANNELS 3 Yrotation Xrotation Zrotation
    JOINT Chest4
    {
     OFFSET 0.000000 10.364600 0.000000
     CHANNELS 3 Yrotation Xrotation Zrotation
     JOINT Neck
     {
      OFFSET 0.000000 15.642200 0.000000
      CHANNELS 3 Yrotation Xrotation Zrotation
      JOINT Head
      {
       OFFSET 0.000000 9.697300 -0.006500
       CHANNELS 3 Yrotation Xrotation Zrotation
       End Site
       {
        OFFSET 0.000000 18.492200 -0.003400
       }
      }
     }
     JOINT RightCollar
     {
      OFFSET -3.166800 10.349300 0.000000
      CHANNELS 3 Yrotation Xrotation Zrotation
      JOINT RightShoulder
      {
       OFFSET -14.729700 0.000000 0.000000
       CHANNELS 3 Yrotation Xrotation Zrotation
       JOINT RightElbow
       {
        OFFSET 0.000000 -32.224300 0.000000
        CHANNELS 3 Yrotation Xrotation Zrotation
        JOINT RightWrist
        {
         OFFSET 0.000000 -26.084100 0.000000
         CHANNELS 3 Yrotation Xrotation Zrotation
         End Site
         {
          OFFSET 0.000000 -19.319400 0.000000
         }
        }
       }
      }
     }
     JOINT LeftCollar
     {
      OFFSET 3.166800 10.349300 0.000000
      CHANNELS 3 Yrotation Xrotation Zrotation
      JOINT LeftShoulder
      {
       OFFSET 14.729700 0.000000 0.000000
       CHANNELS 3 Yrotation Xrotation Zrotation
       JOINT LeftElbow
       {
        OFFSET 0.000000 -32.224300 0.000000
        CHANNELS 3 Yrotation Xrotation Zrotation
        JOINT LeftWrist
        {
         OFFSET 0.000000 -26.084100 0.000000
         CHANNELS 3 Yrotation Xrotation Zrotation
         End Site
         {
          OFFSET 0.000000 -19.319400 0.000000
         }
        }
       }
      }
     }
    }
   }
  }
 }
 JOINT RightHip
 {
  OFFSET -8.428900 -0.007500 -0.000800
  CHANNELS 3 Yrotation Xrotation Zrotation
  JOINT RightKnee
  {
   OFFSET 0.000000 -43.834600 0.000700
   CHANNELS 3 Yrotation Xrotation Zrotation
   JOINT RightAnkle
   {
    OFFSET 0.000000 -42.757000 0.001200
    CHANNELS 3 Yrotation Xrotation Zrotation
    JOINT RightToe
    {
     OFFSET 0.000000 -6.946900 15.649300
     CHANNELS 3 Yrotation Xrotation Zrotation
     End Site
     {
      OFFSET 0.000000 -1.580800 6.825800
     }
    }
   }
  }
 }
 JOINT LeftHip
 {
  OFFSET 8.428900 -0.007500 -0.000800
  CHANNELS 3 Yrotation Xrotation Zrotation
  JOINT LeftKnee
  {
   OFFSET 0.000000 -43.834600 0.000700
   CHANNELS 3 Yrotation Xrotation Zrotation
   JOINT LeftAnkle
   {
    OFFSET 0.000000 -42.757000 0.001200
    CHANNELS 3 Yrotation Xrotation Zrotation
    JOINT LeftToe
    {
     OFFSET 0.000000 -6.946900 15.649300
     CHANNELS 3 Yrotation Xrotation Zrotation
     End Site
     {
      OFFSET 0.000000 -1.580800 6.825800
     }
    }
   }
  }
 }
}
MOTION
Frames: 12
Frame Time: 0.008333
0.000000 93.354300 0.000000 0.000000 -5.767877 0.000000 0.000000 11.653817 0.000000 0.000000 -5.885947 0.000000 0.000000 -0.000000 0.000000 0.000000 -0.000000 0.000000 0.000000 12.528835 0.000000 0.000000 0.711642 0.000000 0.000000 -0.000000 0.000000 0.000000 0.000000 -90.000000 0.000000 -2.309062 0.000000 0.000000 2.309062 0.000000 0.000000 -0.000000 0.000000 0.000000 -0.000000 90.000000 0.000000 -2.309062 0.000000 0.000000 2.309062 0.000000 0.000000 8.520406 0.000000 0.000000 1.905762 0.000000 -0.000000 -4.658285 0.000000 0.000000 -0.000000 0.000000 0.000000 8.520406 0.000000 0.000000 1.905762 0.000000 -0.000000 -4.658285 0.000000 0.000000 -0.000000 0.000000
123.236571 126.928562 36.085427 -14.581022 -28.048777 -1.097056 -1.972833 14.828535 1.649083 -0.197533 1.357549 0.169974 -0.327045 2.285231 0.280344 -1.776321 13.243414 1.493315 1.812096 16.621527 -1.547495 3.899117 -4.864381 -3.492309 -4.018745 -3.197683 -6.464969 6.771468 -12.436060 -3.913545 31.863098 -44.548615 -5.308459 7.048189 9.049075 -16.514722 -0.430879 -5.042161 -1.603474 -1.342365 -4.099102 4.860154 -33.166629 -53.334651 9.384041 -27.956201 6.761257 10.871116 -8.466003 -39.965270 -3.132541 -28.044563 81.753732 -28.842735 4.847852 -11.542884 2.207002 -0.000781 -0.008262 -0.000347 -3.296295 -32.621569 -7.153479 -2.620305 74.726922 0.591459 -11.284385 -11.601919 -0.816519 -0.000254 0.000968 -0.000113
123.236726 126.928802 36.085950 -14.579759 -28.051934 -1.091096 -1.978026 14.835403 1.648609 -0.196356 1.354360 0.164878 -0.331175 2.288872 0.286298 -1.781937 13.247225 1.493048 1.818033 16.611496 -1.536549 3.901946 -4.865594 -3.511969 -4.004074 -3.197167 -6.466141 6.761360 -12.430832 -3.915834 31.861961 -44.561460 -5.306226 7.053997 9.048414 -16.524344 -0.424207 -5.040445 -1.601028 -1.334678 -4.104338 4.848647 -33.172972 -53.338306 9.390616 -27.956482 6.762918 10.873332 -8.460439 -39.963277 -3.140306 -28.050452 81.753362 -28.847642 4.849370 -11.543391 2.205105 -0.001750 -0.007930 -0.000777 -3.294786 -32.619407 -7.159528 -2.620100 74.725935 0.588892 -11.286448 -11.601216 -0.815909 -0.000372 0.000452 -0.000165
123.236218 126.928502 36.085221 -14.577974 -28.048369 -1.089882 -1.982599 14.835766 1.653383 -0.196074 1.356004 0.164221 -0.332209 2.289556 0.287100 -1.787230 13.248391 1.496363 1.824377 16.604728 -1.537857 3.909525 -4.881420 -3.517013 -3.988211 -3.192010 -6.456453 6.748496 -12.421988 -3.924782 31.878997 -44.577932 -5.319027 7.054530 9.051192 -16.537161 -0.428491 -5.034899 -1.589198 -1.313881 -4.098100 4.832016 -33.176536 -53.350848 9.399848 -27.961940 6.755580 10.873492 -8.458290 -39.967032 -3.141642 -28.035178 81.755214 -28.829068 4.853314 -11.545553 2.205257 0.000640 -0.007247 0.000284 -3.297411 -32.623694 -7.159985 -2.590997 74.724862 0.617297 -11.297010 -11.604226 -0.819325 -0.000138 0.000493 -0.000061
123.235737 126.928518 36.085176 -14.581343 -28.048676 -1.084535 -1.983439 14.839952 1.656414 -0.196390 1.355926 0.164931 -0.332700 2.290584 0.287899 -1.787317 13.258683 1.513425 1.821527 16.590847 -1.557709 3.918974 -4.903598 -3.514406 -3.982957 -3.206669 -6.476389 6.739377 -12.416954 -3.920569 31.885807 -44.586641 -5.318721 7.048787 9.052202 -16.560222 -0.426512 -5.049165 -1.612405 -1.311581 -4.094462 4.830655 -33.184361 -53.338517 9.419184 -27.959943 6.738872 10.877516 -8.452422 -39.968512 -3.143493 -28.075830 81.755342 -28.869103 4.857850 -11.548964 2.203577 0.000411 -0.006637 0.000183 -3.293151 -32.623292 -7.162067 -2.590530 74.721740 0.614118 -11.293617 -11.603517 -0.819939 0.000463 0.000582 0.000206
123.235647 126.928367 36.084961 -14.585128 -28.047000 -1.076747 -1.984112 14.841587 1.655259 -0.198828 1.361088 0.173124 -0.333643 2.292837 0.291323 -1.787795 13.254607 1.506910 1.821259 16.584154 -1.567244 3.920088 -4.908421 -3.514085 -3.979393 -3.212619 -6.481703 6.735007 -12.415784 -3.920658 31.884731 -44.596066 -5.307710 7.059160 9.063835 -16.570420 -0.420660 -5.050684 -1.611606 -1.314744 -4.095751 4.819738 -33.187943 -53.338656 9.426698 -27.965364 6.742183 10.890961 -8.444785 -39.973054 -3.148675 -28.096784 81.754834 -28.890410 4.859829 -11.548944 2.203135 -0.001320 -0.006280 -0.000586 -3.287332 -32.626011 -7.166568 -2.603627 74.718376 0.597438 -11.291269 -11.599253 -0.818601 -0.000011 0.000134 -0.000005
123.235208 126.928185 36.084603 -14.588208 -28.044725 -1.071156 -1.983417 14.840435 1.652660 -0.198864 1.361239 0.173207 -0.337405 2.294608 0.298192 -1.790525 13.255462 1.508629 1.825239 16.583544 -1.570234 3.920603 -4.914905 -3.520657 -3.971985 -3.215641 -6.488295 6.731837 -12.415484 -3.920523 31.889139 -44.600620 -5.305808 7.065088 9.074312 -16.573007 -0.417761 -5.045758 -1.613358 -1.323977 -4.085849 4.824939 -33.173931 -53.356230 9.429626 -27.969211 6.740604 10.894714 -8.452414 -39.977667 -3.136339 -28.145047 81.748761 -28.950660 4.855838 -11.547882 2.203844 0.000168 -0.005865 0.000074 -3.280897 -32.629474 -7.170026 -2.614391 74.714824 0.585850 -11.291963 -11.593267 -0.817360 -0.000358 -0.000177 -0.000159
123.234386 126.928120 36.084376 -14.594207 -28.043666 -1.066043 -1.982608 14.841644 1.657994 -0.199337 1.361396 0.173441 -0.340246 2.293330 0.296896 -1.789151 13.255160 1.505996 1.828376 16.583671 -1.565670 3.928492 -4.917891 -3.525788 -3.962407 -3.214987 -6.478189 6.718160 -12.413922 -3.928768 31.902865 -44.605049 -5.306070 7.068955 9.082638 -16.575100 -0.419975 -5.038482 -1.604873 -1.318767 -4.086549 4.823774 -33.172966 -53.360762 9.418508 -27.962952 6.739382 10.907730 -8.453831 -39.980430 -3.129181 -28.172517 81.743696 -28.985090 4.858880 -11.546691 2.200736 0.000630 -0.005448 0.000280 -3.272690 -32.627895 -7.175110 -2.602054 74.709328 0.597022 -11.278463 -11.592599 -0.815603 0.000372 0.001244 0.000165
123.233008 126.927954 36.083798 -14.605318 -28.041293 -1.062070 -1.978393 14.839296 1.665706 -0.209414 1.362512 0.177884 -0.333746 2.292529 0.290315 -1.785666 13.255329 1.504865 1.830606 16.582485 -1.560407 3.936629 -4.920622 -3.529477 -3.960985 -3.215210 -6.475668 6.719158 -12.410788 -3.930040 31.910883 -44.607275 -5.312645 7.070919 9.085449 -16.575950 -0.417755 -5.037345 -1.606168 -1.315760 -4.082810 4.833211 -33.165556 -53.364258 9.400630 -27.956572 6.736462 10.918607 -8.452441 -39.984515 -3.120359 -28.191203 81.740163 -29.005462 4.857314 -11.545944 2.199113 0.000933 -0.005979 0.000414 -3.262775 -32.629721 -7.171867 -2.598435 74.707597 0.598716 -11.277534 -11.591556 -0.814286 0.000419 0.001687 0.000186
123.232008 126.927876 36.083524 -14.612037 -28.039903 -1.057822 -1.983111 14.839821 1.665201 -0.206555 1.360693 0.178734 -0.333708 2.292205 0.290702 -1.792606 13.253573 1.516143 1.835842 16.585195 -1.557800 3.945856 -4.920132 -3.541497 -3.949003 -3.213677 -6.491880 6.718463 -12.410071 -3.921339 31.922260 -44.604227 -5.324930 7.072082 9.086982 -16.575042 -0.409632 -5.033012 -1.614056 -1.308558 -4.083244 4.835867 -33.153042 -53.352604 9.382739 -27.964512 6.719193 10.925485 -8.450287 -39.988426 -3.117549 -28.208812 81.740515 -29.026142 4.854628 -11.548709 2.202842 -0.001195 -0.007830 -0.000530 -3.255867 -32.630974 -7.171893 -2.593647 74.706489 0.599812 -11.271775 -11.590904 -0.812833 0.000141 0.001707 0.000063
123.231008 126.927874 36.083438 -14.618440 -28.039425 -1.053481 -1.987593 14.838973 1.667296 -0.199584 1.360981 0.174365 -0.333698 2.292084 0.290824 -1.792489 13.253246 1.516976 1.836220 16.591041 -1.550931 3.952421 -4.920087 -3.536849 -3.949201 -3.212999 -6.485663 6.725471 -12.409869 -3.921784 31.924021 -44.601759 -5.323926 7.072536 9.087493 -16.573514 -0.422203 -5.027563 -1.601923 -1.294060 -4.089321 4.835285 -33.148720 -53.346607 9.371603 -27.958069 6.710196 10.931290 -8.445681 -39.991278 -3.118167 -28.221526 81.742315 -29.039413 4.856230 -11.548611 2.203041 -0.002669 -0.008587 -0.001185 -3.245696 -32.630762 -7.167641 -2.616064 74.704092 0.576028 -11.285835 -11.590311 -0.808797 -0.000653 0.001897 -0.000290
123.230393 126.927797 36.083367 -14.636788 -28.038268 -1.041342 -1.986182 14.845277 1.671051 -0.195668 1.358205 0.169967 -0.333806 2.292782 0.291476 -1.792350 13.255251 1.519906 1.840013 16.591739 -1.556161 3.954748 -4.924628 -3.541210 -3.939689 -3.222318 -6.491267 6.730700 -12.409871 -3.921748 31.918859 -44.600373 -5.321382 7.070864 9.089226 -16.573376 -0.421190 -5.032783 -1.607773 -1.286653 -4.093298 4.838980 -33.145175 -53.336479 9.363855 -27.954553 6.698170 10.935410 -8.427343 -39.994688 -3.122401 -28.230612 81.744030 -29.047431 4.859879 -11.549016 2.201017 -0.002850 -0.007227 -0.001265 -3.222027 -32.630824 -7.168353 -2.636892 74.702830 0.553527 -11.287134 -11.592728 -0.806684 -0.000429 -0.000013 -0.000190
